<svg width="470" height="206" viewBox="0 0 470 206" fill="none" xmlns="http://www.w3.org/2000/svg">
<path d="M287.048 189.422L309.188 53.2221C402.176 -83.8624 536.787 85.0603 428.744 148.738C425.202 137.241 419.002 124.859 404.833 124.859L402.176 137.241C400.411 107.267 391.606 84.3239 365.237 81.5489C389.662 83.9439 373.08 50.5836 410.146 54.9903V53.9569C410.146 52.8201 411.323 52.25 412.19 52.6575C412.679 52.8874 412.714 53.5471 412.589 54.073C405.69 83.0881 449.795 72.4504 428.744 48.7995C396.862 39.9553 360.553 39.0709 335.756 66.4877C331.328 114.246 351.697 121.321 364.981 148.738C364.981 189.422 303.875 227.451 287.048 189.422Z" fill="white"/>
<path d="M42.6231 77.9438C50.5935 48.7583 59.4495 -4.3065 147.124 6.30633L139.153 43.4518C67.4199 33.7232 89.5598 96.5165 67.4199 153.119H27.5679L38.1951 111.551H1C10.7416 95.632 1 66.4465 42.6231 77.9438Z" fill="white"/>
<path d="M139.153 52.2959C86.0174 37.2609 93.9878 104.476 78.9326 153.119C132.069 169.038 122.327 95.632 139.153 52.2959Z" fill="white"/>
<path d="M78.9326 161.963C174.577 179.651 103.729 34.6076 187.861 52.2959L181.662 94.7476H291.476C302.103 145.159 234.798 131.893 168.378 131.893C175.463 161.963 139.153 214.143 67.4199 199.993L78.9326 161.963Z" fill="white"/>
<path d="M365.237 81.5489C389.662 83.9439 373.08 50.5836 410.146 54.9903V53.9569C410.146 52.8201 411.323 52.25 412.19 52.6575C412.679 52.8874 412.714 53.5471 412.589 54.073C405.69 83.0881 449.795 72.4504 428.744 48.7995C396.862 39.9553 360.553 39.0709 335.756 66.4877C331.328 114.246 351.697 121.321 364.981 148.738C364.981 189.422 303.875 227.451 287.048 189.422L309.188 53.2221C402.176 -83.8624 536.787 85.0603 428.744 148.738C425.202 137.241 419.002 124.859 404.833 124.859L402.176 137.241C400.411 107.267 391.606 84.3239 365.237 81.5489ZM365.237 81.5489C365.152 81.5406 365.067 81.5319 364.981 81.5227M147.124 6.30633C59.4495 -4.3065 50.5935 48.7583 42.6231 77.9438C1 66.4465 10.7416 95.632 1 111.551H38.1951L27.5679 153.119H67.4199C89.5598 96.5165 67.4199 33.7232 139.153 43.4518L147.124 6.30633ZM139.153 52.2959C86.0174 37.2609 93.9878 104.476 78.9326 153.119C132.069 169.038 122.327 95.632 139.153 52.2959ZM187.861 52.2959C103.729 34.6076 174.577 179.651 78.9326 161.963L67.4199 199.993C139.153 214.143 175.463 161.963 168.378 131.893C234.798 131.893 302.103 145.159 291.476 94.7476H181.662L187.861 52.2959Z" stroke="white"/>
</svg>
