<svg width="876" height="384" viewBox="0 0 876 384" fill="none" xmlns="http://www.w3.org/2000/svg">
<path d="M535.419 353.642L576.783 98.7369C750.511 -157.825 1002 158.324 800.147 277.501C793.529 255.983 781.947 232.809 755.474 232.809L750.511 255.983C747.212 199.886 730.763 156.946 681.498 151.752C727.131 156.234 696.151 93.7987 765.402 102.046V100.112C765.402 97.7002 768.226 96.6512 769.832 98.0857C770.234 98.4454 770.276 99.068 770.145 99.5916C756.332 154.812 839.654 134.923 800.147 90.4596C740.584 73.9073 672.747 72.2521 626.42 123.564C618.147 212.947 656.201 226.188 681.02 277.501C681.02 353.642 566.856 424.816 535.419 353.642Z" fill="#8766FF"/>
<path d="M78.7638 145.005C93.6548 90.3826 110.2 -8.93143 274.001 10.9311L259.11 80.451C125.091 62.2435 166.455 179.765 125.091 285.699H50.6365L70.4911 207.903H1C19.2 178.11 1 123.487 78.7638 145.005Z" fill="#8766FF"/>
<path d="M259.11 97.0033C159.837 68.8644 174.728 194.662 146.6 285.699C245.873 315.494 227.673 178.11 259.11 97.0033Z" fill="#8766FF"/>
<path d="M146.6 302.252C325.292 335.356 192.928 63.8987 350.11 97.0033L338.528 176.454H543.692C563.547 270.802 437.801 245.974 313.71 245.974C326.946 302.252 259.11 399.91 125.091 373.427L146.6 302.252Z" fill="#8766FF"/>
<path d="M681.498 151.752C727.131 156.234 696.151 93.7987 765.402 102.046V100.112C765.402 97.7002 768.226 96.6512 769.832 98.0857C770.234 98.4454 770.276 99.068 770.145 99.5916C756.332 154.812 839.654 134.923 800.147 90.4596C740.584 73.9073 672.747 72.2521 626.42 123.564C618.147 212.947 656.201 226.188 681.02 277.501C681.02 353.642 566.856 424.816 535.419 353.642L576.783 98.7369C750.511 -157.825 1002 158.324 800.147 277.501C793.529 255.983 781.947 232.809 755.474 232.809L750.511 255.983C747.212 199.886 730.763 156.946 681.498 151.752ZM681.498 151.752C681.339 151.737 681.18 151.72 681.02 151.703M274.001 10.9311C110.2 -8.93143 93.6548 90.3826 78.7638 145.005C1 123.487 19.2 178.11 1 207.903H70.4911L50.6365 285.699H125.091C166.455 179.765 125.091 62.2435 259.11 80.451L274.001 10.9311ZM259.11 97.0033C159.837 68.8644 174.728 194.662 146.6 285.699C245.873 315.494 227.673 178.11 259.11 97.0033ZM350.11 97.0033C192.928 63.8987 325.292 335.356 146.6 302.252L125.091 373.427C259.11 399.91 326.946 302.252 313.71 245.974C437.801 245.974 563.547 270.802 543.692 176.454H338.528L350.11 97.0033Z" stroke="white"/>
</svg>
